<svg id="visual" viewBox="0 0 960 540" width="960" height="540" xmlns="http://www.w3.org/2000/svg" xmlns:xlink="http://www.w3.org/1999/xlink" version="1.1"><rect x="0" y="0" width="960" height="540" fill="#00040d"></rect><g fill="none" stroke="#f5f058" stroke-width="2"><path d="M0 -48.1L10.8 -14.9L45.8 -14.9L17.5 5.7L28.3 38.9L0 18.4L-28.3 38.9L-17.5 5.7L-45.8 -14.9L-10.8 -14.9Z" transform="translate(127 382)"></path><path d="M0 -3.8L0.8 -1.2L3.6 -1.2L1.4 0.4L2.2 3.1L0 1.4L-2.2 3.1L-1.4 0.4L-3.6 -1.2L-0.8 -1.2Z" transform="translate(532 284)"></path><path d="M0 -27.4L6.1 -8.5L26 -8.5L9.9 3.2L16.1 22.1L0 10.5L-16.1 22.1L-9.9 3.2L-26 -8.5L-6.1 -8.5Z" transform="translate(177 204)"></path><path d="M0 -24.5L5.5 -7.6L23.3 -7.6L8.9 2.9L14.4 19.9L0 9.4L-14.4 19.9L-8.9 2.9L-23.3 -7.6L-5.5 -7.6Z" transform="translate(541 109)"></path><path d="M0 -35.9L8.1 -11.1L34.1 -11.1L13 4.2L21.1 29L0 13.7L-21.1 29L-13 4.2L-34.1 -11.1L-8.1 -11.1Z" transform="translate(954 224)"></path><path d="M0 -25.5L5.7 -7.9L24.2 -7.9L9.3 3L15 20.6L0 9.7L-15 20.6L-9.3 3L-24.2 -7.9L-5.7 -7.9Z" transform="translate(828 519)"></path><path d="M0 -5.7L1.3 -1.7L5.4 -1.7L2.1 0.7L3.3 4.6L0 2.2L-3.3 4.6L-2.1 0.7L-5.4 -1.7L-1.3 -1.7Z" transform="translate(921 389)"></path><path d="M0 -9.4L2.1 -2.9L9 -2.9L3.4 1.1L5.5 7.6L0 3.6L-5.5 7.6L-3.4 1.1L-9 -2.9L-2.1 -2.9Z" transform="translate(33 338)"></path><path d="M0 -29.3L6.6 -9L27.8 -9L10.6 3.5L17.2 23.7L0 11.2L-17.2 23.7L-10.6 3.5L-27.8 -9L-6.6 -9Z" transform="translate(370 203)"></path><path d="M0 -24.5L5.5 -7.6L23.3 -7.6L8.9 2.9L14.4 19.9L0 9.4L-14.4 19.9L-8.9 2.9L-23.3 -7.6L-5.5 -7.6Z" transform="translate(811 65)"></path><path d="M0 -10.4L2.3 -3.2L9.9 -3.2L3.8 1.2L6.1 8.4L0 4L-6.1 8.4L-3.8 1.2L-9.9 -3.2L-2.3 -3.2Z" transform="translate(925 88)"></path><path d="M0 -39.6L8.9 -12.2L37.7 -12.2L14.4 4.7L23.3 32.1L0 15.1L-23.3 32.1L-14.4 4.7L-37.7 -12.2L-8.9 -12.2Z" transform="translate(739 350)"></path><path d="M0 -13.2L3 -4.1L12.6 -4.1L4.8 1.6L7.8 10.7L0 5L-7.8 10.7L-4.8 1.6L-12.6 -4.1L-3 -4.1Z" transform="translate(698 448)"></path><path d="M0 -17L3.8 -5.2L16.2 -5.2L6.2 2L10 13.7L0 6.5L-10 13.7L-6.2 2L-16.2 -5.2L-3.8 -5.2Z" transform="translate(304 411)"></path><path d="M0 -27.4L6.1 -8.5L26 -8.5L9.9 3.2L16.1 22.1L0 10.5L-16.1 22.1L-9.9 3.2L-26 -8.5L-6.1 -8.5Z" transform="translate(657 176)"></path><path d="M0 -9.4L2.1 -2.9L9 -2.9L3.4 1.1L5.5 7.6L0 3.6L-5.5 7.6L-3.4 1.1L-9 -2.9L-2.1 -2.9Z" transform="translate(219 77)"></path><path d="M0 -17L3.8 -5.2L16.2 -5.2L6.2 2L10 13.7L0 6.5L-10 13.7L-6.2 2L-16.2 -5.2L-3.8 -5.2Z" transform="translate(810 248)"></path><path d="M0 -23.6L5.3 -7.3L22.4 -7.3L8.6 2.8L13.9 19.1L0 9L-13.9 19.1L-8.6 2.8L-22.4 -7.3L-5.3 -7.3Z" transform="translate(684 6)"></path><path d="M0 -27.4L6.1 -8.5L26 -8.5L9.9 3.2L16.1 22.1L0 10.5L-16.1 22.1L-9.9 3.2L-26 -8.5L-6.1 -8.5Z" transform="translate(415 340)"></path><path d="M0 -19.8L4.4 -6.1L18.9 -6.1L7.2 2.3L11.7 16L0 7.6L-11.7 16L-7.2 2.3L-18.9 -6.1L-4.4 -6.1Z" transform="translate(13 230)"></path><path d="M0 -21.7L4.9 -6.7L20.6 -6.7L7.9 2.6L12.8 17.6L0 8.3L-12.8 17.6L-7.9 2.6L-20.6 -6.7L-4.9 -6.7Z" transform="translate(57 477)"></path><path d="M0 -22.7L5.1 -7L21.5 -7L8.2 2.7L13.3 18.3L0 8.7L-13.3 18.3L-8.2 2.7L-21.5 -7L-5.1 -7Z" transform="translate(113 31)"></path><path d="M0 -13.2L3 -4.1L12.6 -4.1L4.8 1.6L7.8 10.7L0 5L-7.8 10.7L-4.8 1.6L-12.6 -4.1L-3 -4.1Z" transform="translate(958 528)"></path><path d="M0 -27.4L6.1 -8.5L26 -8.5L9.9 3.2L16.1 22.1L0 10.5L-16.1 22.1L-9.9 3.2L-26 -8.5L-6.1 -8.5Z" transform="translate(483 436)"></path><path d="M0 -33L7.4 -10.2L31.4 -10.2L12 3.9L19.4 26.7L0 12.6L-19.4 26.7L-12 3.9L-31.4 -10.2L-7.4 -10.2Z" transform="translate(762 156)"></path><path d="M0 -43.4L9.7 -13.4L41.3 -13.4L15.8 5.1L25.5 35.1L0 16.6L-25.5 35.1L-15.8 5.1L-41.3 -13.4L-9.7 -13.4Z" transform="translate(393 510)"></path><path d="M0 -31.1L7 -9.6L29.6 -9.6L11.3 3.7L18.3 25.2L0 11.9L-18.3 25.2L-11.3 3.7L-29.6 -9.6L-7 -9.6Z" transform="translate(350 18)"></path><path d="M0 -37.8L8.5 -11.7L35.9 -11.7L13.7 4.5L22.2 30.5L0 14.4L-22.2 30.5L-13.7 4.5L-35.9 -11.7L-8.5 -11.7Z" transform="translate(602 400)"></path><path d="M0 -45.3L10.2 -14L43.1 -14L16.5 5.3L26.6 36.7L0 17.3L-26.6 36.7L-16.5 5.3L-43.1 -14L-10.2 -14Z" transform="translate(638 302)"></path><path d="M0 -37.8L8.5 -11.7L35.9 -11.7L13.7 4.5L22.2 30.5L0 14.4L-22.2 30.5L-13.7 4.5L-35.9 -11.7L-8.5 -11.7Z" transform="translate(206 450)"></path><path d="M0 -21.7L4.9 -6.7L20.6 -6.7L7.9 2.6L12.8 17.6L0 8.3L-12.8 17.6L-7.9 2.6L-20.6 -6.7L-4.9 -6.7Z" transform="translate(431 112)"></path><path d="M0 -24.5L5.5 -7.6L23.3 -7.6L8.9 2.9L14.4 19.9L0 9.4L-14.4 19.9L-8.9 2.9L-23.3 -7.6L-5.5 -7.6Z" transform="translate(311 119)"></path><path d="M0 -6.6L1.5 -2L6.3 -2L2.4 0.8L3.9 5.3L0 2.5L-3.9 5.3L-2.4 0.8L-6.3 -2L-1.5 -2Z" transform="translate(215 334)"></path><path d="M0 -19.8L4.4 -6.1L18.9 -6.1L7.2 2.3L11.7 16L0 7.6L-11.7 16L-7.2 2.3L-18.9 -6.1L-4.4 -6.1Z" transform="translate(561 535)"></path><path d="M0 -4.7L1.1 -1.5L4.5 -1.5L1.7 0.6L2.8 3.8L0 1.8L-2.8 3.8L-1.7 0.6L-4.5 -1.5L-1.1 -1.5Z" transform="translate(267 535)"></path><path d="M0 -30.2L6.8 -9.3L28.7 -9.3L11 3.6L17.8 24.4L0 11.5L-17.8 24.4L-11 3.6L-28.7 -9.3L-6.8 -9.3Z" transform="translate(15 79)"></path><path d="M0 -39.6L8.9 -12.2L37.7 -12.2L14.4 4.7L23.3 32.1L0 15.1L-23.3 32.1L-14.4 4.7L-37.7 -12.2L-8.9 -12.2Z" transform="translate(474 5)"></path><path d="M0 -24.5L5.5 -7.6L23.3 -7.6L8.9 2.9L14.4 19.9L0 9.4L-14.4 19.9L-8.9 2.9L-23.3 -7.6L-5.5 -7.6Z" transform="translate(275 245)"></path><path d="M0 -10.4L2.3 -3.2L9.9 -3.2L3.8 1.2L6.1 8.4L0 4L-6.1 8.4L-3.8 1.2L-9.9 -3.2L-2.3 -3.2Z" transform="translate(91 146)"></path><path d="M0 -43.4L9.7 -13.4L41.3 -13.4L15.8 5.1L25.5 35.1L0 16.6L-25.5 35.1L-15.8 5.1L-41.3 -13.4L-9.7 -13.4Z" transform="translate(579 15)"></path></g></svg>